HIERARCHY
ROOT Hips
{
	OFFSET 0.000000 0.000000 0.000000
	CHANNELS 6 Xposition Yposition Zposition Zrotation Yrotation Xrotation 
	JOINT LHipJoint
	{
		OFFSET 0.000000 0.000000 0.000000
		CHANNELS 3 Zrotation Yrotation Xrotation
		JOINT LeftUpLeg
		{
			OFFSET 1.363060 -1.794630 0.839290
			CHANNELS 3 Zrotation Yrotation Xrotation
			JOINT LeftLeg
			{
				OFFSET 2.448110 -6.726130 0.000000
				CHANNELS 3 Zrotation Yrotation Xrotation
				JOINT LeftFoot
				{
					OFFSET 2.562200 -7.039590 0.000000
					CHANNELS 3 Zrotation Yrotation Xrotation
					JOINT LeftToeBase
					{
						OFFSET 0.157640 -0.433110 2.322550
						CHANNELS 3 Zrotation Yrotation Xrotation
						End Site
						{
							OFFSET 0.000000 0.000000 0.000000
						}
					}
				}
			}
		}
	}
	JOINT RHipJoint
	{
		OFFSET 0.000000 0.000000 0.000000
		CHANNELS 3 Zrotation Yrotation Xrotation
		JOINT RightUpLeg
		{
			OFFSET -1.305520 -1.794630 0.839290
			CHANNELS 3 Zrotation Yrotation Xrotation
			JOINT RightLeg
			{
				OFFSET -2.542530 -6.985550 0.000000
				CHANNELS 3 Zrotation Yrotation Xrotation
				JOINT RightFoot
				{
					OFFSET -2.568260 -7.056230 0.000000
					CHANNELS 3 Zrotation Yrotation Xrotation
					JOINT RightToeBase
					{
						OFFSET -0.164730 -0.452590 2.363150
						CHANNELS 3 Zrotation Yrotation Xrotation
						End Site
						{
							OFFSET 0.000000 0.000000 0.000000
						}
					}
				}
			}
		}
	}
}
MOTION
Frames: 16
Frame Time: 0.008333
-2.584489 16.043189 -0.015555 51.267834 82.512220 80.507900 -12.083283 0.721008 -5.345299 -6.481321 11.802024 -33.559787 -0.681791 4.144942 59.288833 0.083783 -4.573686 3.330564 -0.797299 -0.000000 -73.044599 7.479387 1.269377 -2.156156 19.035263 -2.021945 -66.578090 2.449013 -4.145503 45.736537 -3.643185 -10.207167 -18.969370 -178.636700 0.000000 -15.718900
-2.459649 16.039037 0.037242 50.018843 82.188927 79.197490 -12.067465 0.742126 -5.328773 -6.430918 11.622090 -33.725236 -0.531045 4.198061 60.186555 0.145945 -4.505706 4.807821 -0.937600 -0.000000 -70.833300 7.549151 1.337954 -2.255546 18.884400 -2.128008 -66.195359 2.406063 -4.176003 46.453977 -3.649411 -10.041210 -19.866335 -178.427500 0.000000 -15.522199
-2.335823 16.036350 0.090085 48.890563 81.847484 78.021270 -12.044548 0.762609 -5.310195 -6.444833 11.453686 -33.923125 -0.390551 4.243102 61.039010 0.218640 -4.337872 6.250515 -1.054700 0.000000 -68.073199 7.623163 1.401849 -2.342029 18.724984 -2.247764 -65.812262 2.371395 -4.200046 47.090715 -3.648211 -9.854802 -20.700721 -178.241500 0.000000 -15.431400
-2.212965 16.035233 0.142728 47.850102 81.486469 76.948252 -12.015556 0.782871 -5.290258 -6.521724 11.302882 -34.157994 -0.262362 4.281792 61.849602 0.298526 -4.075220 7.613266 -1.137200 0.000000 -64.709100 7.701079 1.461125 -2.417313 18.561749 -2.385658 -65.449265 2.343787 -4.222398 47.677097 -3.635553 -9.634068 -21.466993 -178.081799 0.000000 -15.466100
-2.091143 16.035916 0.194862 46.822597 81.110610 75.908631 -11.983050 0.801225 -5.270593 -6.648060 11.181522 -34.438590 -0.148269 4.316755 62.619104 0.382267 -3.719156 8.843086 -1.174200 -0.000000 -60.910900 7.779319 1.512737 -2.479978 18.406597 -2.527874 -65.111966 2.322845 -4.243170 48.216708 -3.611416 -9.379320 -22.158702 -177.950400 -0.000000 -15.610900
-1.970419 16.038602 0.246253 45.763293 80.721602 74.859798 -11.948369 0.817155 -5.252517 -6.814159 11.095515 -34.768990 -0.048659 4.350297 63.350199 0.466921 -3.270440 9.894106 -1.157600 0.000000 -56.833600 7.856066 1.555077 -2.531225 18.269176 -2.671054 -64.802883 2.308967 -4.263196 48.715465 -3.574233 -9.083285 -22.775660 -177.848500 0.000000 -15.820300
-1.850893 16.043469 0.296834 44.629357 80.325085 73.762585 -11.913091 0.828830 -5.237262 -7.004833 11.050054 -35.155456 0.036802 4.384641 64.043802 0.550307 -2.729829 10.729892 -1.083199 -0.000000 -52.792000 7.928073 1.585373 -2.569733 18.159398 -2.800395 -64.514405 2.302753 -4.279961 49.158902 -3.526109 -8.752045 -23.318162 -177.775100 0.000000 -16.031800
-1.732662 16.050456 0.346658 43.430447 79.918306 72.622348 -11.876310 0.837527 -5.225711 -7.218305 11.041528 -35.591646 0.109322 4.420865 64.702243 0.631179 -2.095053 11.322752 -0.949800 0.000000 -49.002700 7.996448 1.604785 -2.600042 18.079468 -2.927404 -64.242328 2.305405 -4.294744 49.552246 -3.464544 -8.372922 -23.794480 -177.730300 0.000000 -16.198100
-1.615835 16.059539 0.395866 42.160976 79.505790 71.434312 -11.838383 0.841828 -5.217963 -7.442392 11.067165 -36.078903 0.170317 4.459982 65.326427 0.709157 -1.371225 11.663891 -0.762799 -0.000000 -45.767800 8.059345 1.612037 -2.621340 18.032599 -3.041309 -63.972338 2.317536 -4.304236 49.875582 -3.392972 -7.956367 -24.210235 -177.711000 -0.000000 -16.262200
-1.500450 16.070533 0.444679 40.853825 79.084303 70.223267 -11.797822 0.843418 -5.214501 -7.678454 11.119441 -36.605733 0.221040 4.502161 65.918002 0.784092 -0.564174 11.743349 -0.530200 0.000000 -43.147400 8.118829 1.609451 -2.638770 18.015389 -3.157111 -63.695049 2.339966 -4.309288 50.131843 -3.309921 -7.494436 -24.574901 -177.716200 -0.000000 -16.197600
-1.386531 16.083214 0.493386 39.527641 78.656641 69.005422 -11.754157 0.841800 -5.214613 -7.920340 11.191346 -37.168109 0.262527 4.547189 66.475821 0.856448 0.311418 11.571865 -0.265899 0.000000 -41.247800 8.174772 1.597541 -2.652591 18.024280 -3.271446 -63.397806 2.372478 -4.307780 50.309392 -3.218599 -6.998256 -24.894861 -177.742300 -0.000001 -15.981400
-1.274049 16.097286 0.542269 38.213933 78.221761 67.805942 -11.706315 0.837880 -5.217807 -8.168116 11.274622 -37.755665 0.295256 4.594271 66.996761 0.926580 1.236609 11.163910 0.013599 0.000000 -40.000200 8.228749 1.578585 -2.665694 18.052485 -3.392043 -63.073187 2.414523 -4.299889 50.410520 -3.119858 -6.470876 -25.176639 -177.787100 0.000000 -15.613200
-1.162960 16.112485 0.591496 36.937760 77.780070 66.644471 -11.653583 0.832185 -5.222913 -8.421491 11.361022 -38.359535 0.319385 4.642148 67.475182 0.994807 2.186598 10.546780 0.290200 0.000000 -39.299400 8.282064 1.554585 -2.680096 18.092928 -3.524005 -62.716028 2.464843 -4.285925 50.440178 -3.015075 -5.918758 -25.424131 -177.848100 0.000000 -15.108499
-1.053144 16.128530 0.641282 35.715133 77.332502 65.534334 -11.595620 0.824870 -5.228436 -8.679116 11.442891 -38.973495 0.334761 4.689444 67.904348 1.060957 3.131681 9.754976 0.546200 -0.000000 -38.967600 8.335532 1.527276 -2.696537 18.139057 -3.667781 -62.326248 2.521662 -4.266335 50.405646 -2.906210 -5.351058 -25.640296 -177.922701 -0.000000 -14.499500
-0.944480 16.145256 0.691640 34.560076 76.878061 64.485733 -11.532229 0.816578 -5.232551 -8.941977 11.511469 -39.588586 0.341328 4.734251 68.275287 1.124868 4.043437 8.836672 0.767600 -0.000000 -38.880500 8.390488 1.498957 -2.717104 18.183943 -3.828946 -61.907211 2.582999 -4.242848 50.322008 -2.793611 -4.771684 -25.825683 -178.009400 -0.000000 -13.827301
-0.836862 16.162537 0.742544 33.474384 76.417505 63.500497 -11.463711 0.807035 -5.233079 -9.208686 11.558617 -40.202106 0.339275 4.774935 68.580550 1.185791 4.893690 7.844419 0.945300 -0.000000 -38.921101 8.447244 1.471059 -2.741993 18.222984 -4.005550 -61.466220 2.646683 -4.216817 50.203044 -2.678442 -4.187472 -25.980178 -178.106400 0.000001 -13.137100
